<?xml version="1.0" encoding="UTF-8"?>
<svg id="AurumFort_Crest" xmlns="http://www.w3.org/2000/svg" version="1.1" viewBox="15 0 145 142">
  <defs>
    <style>
      .st0 {
        fill: currentColor;
      }
    </style>
  </defs>
  <g id="Logo">
    <path class="st0" d="M58.48,15.94c2.83,1.19,5.89,2.44,8.68,3.7v-10.16c-2.8.75-5.97,1.52-8.71,2.35-5.22-2.39-10.47-4.73-15.74-7.01l-4.29-1.87c-.42-.18-2.32-1.1-2.66-1.02-5.82,1.45-11.64,2.86-17.48,4.24v5.05c-1.42.38-2.83.77-4.24,1.18l-.28,119.41c3.82.15,7.63.33,11.45.52l.02-20.75-8.65-1.69c.65-3.87,1.32-7.74,2.02-11.6.22-1.26.81-4.04.79-5.18-.02-.85-.38-3.28-.5-4.22l-1.01-7.87c-.1-.79-.43-2.89-.4-3.54.06-1.13.35-2.92.51-4.07l1.12-7.77c.14-.95.49-3.11.45-3.97-.03-.93-.33-2.81-.45-3.8l-1.11-8.58c-.13-1.01-.47-3.15-.39-4.07.1-1.11.37-2.7.55-3.83l1.12-7.16c.13-.83.54-3.08.51-3.82-.03-.89-.37-2.77-.5-3.74l-1.18-8.57c-.16-1.16-.49-3.19-.54-4.32,5.87-1.63,11.65-3.32,17.55-4.89,2.61,1.01,5.21,2.06,7.79,3.15,3.17,1.32,6.33,2.68,9.48,4.06,1.92.84,3.95,1.78,5.87,2.57l-.67,10.41c-.1,1.55-.38,3.99-.29,5.51.28,4.79,1,9.65,1.23,14.44.05.99-.28,3.04-.39,4.08l-.76,7.5c-.11,1.11-.35,3.02-.31,4.1.04,1.08.25,2.65.37,3.75l.71,6.57c.1.96.3,2.45.31,3.38.02,1.19-.25,3.09-.4,4.32l-.72,6.49c-.08.71-.37,2.97-.36,3.61.02,1.64.38,4.06.6,5.75.45,3.45.79,7,1.27,10.42l-2.21.48v17.87c3.48-1.03,6.96-2.09,10.43-3.16l.09-102.85c-2.54-1.04-6.29-2.55-8.71-3.71l.03-1.69Z"/>
    <path class="st0" d="M75.11,106.33l-.98-9.52c-.18-1.72-.48-4.01-.47-5.72,0-.74.28-2.65.38-3.46l.71-5.58c.15-1.16.38-2.72.35-3.86-.04-1.13-.19-2.45-.3-3.59l-.61-5.9c-.12-1.17-.35-2.99-.29-4.12.06-1.05.26-2.49.39-3.56l.69-6.03c.1-.93.27-2.27.29-3.19.02-1.06-.19-2.64-.31-3.73l-.78-6.93c-.15-1.34-.35-2.57-.22-3.94.12-1.23,2.09-10.67,1.83-11h-.08c-2.35.51-4.7,1.03-7.05,1.57v84.59c-.02,3.94-.08,8.06-.01,12,5.31,1.05,11.23,2.2,16.54,3.08.61.11,1.21.22,1.82.32.17-6.17.02-12.94.01-19.14-3.78-.75-8.14-1.71-11.91-2.29Z"/>
    <path class="st0" d="M122.79,134.4l14.16,2.67c.94.18,3.12.6,4.21.76.04,0,.17-.06.2-.09v-21.65c-6.15-.9-12.41-1.63-18.58-2.49,0,6.89-.07,13.92,0,20.8Z"/>
    <path class="st0" d="M127.82,97.33c-2.51-.39-5.12-.83-7.64-1.14-.03,4.27.14,8.69.23,12.97l16.63,2.86c2.85.5,6.63,1.25,9.46,1.61.01-4.49,0-8.98-.04-13.46-2.07-.24-4.38-.64-6.46-.96l-12.18-1.88Z"/>
    <path class="st0" d="M104.28,111.09c-.15,1.25-.04,5.1-.04,6.52v13.35c5.52.97,11.38,2.26,16.85,3.12v-20.73s-10.83-1.47-10.83-1.47c-1.85-.25-4.16-.63-5.99-.8Z"/>
    <path class="st0" d="M146.43,80.79c-.69.02-1.39.03-2.08.05l-23.58.62c-.14,2.83-.3,5.65-.47,8.48-.08,1.33-.21,2.89-.2,4.2h2.19s24.22.09,24.22.09l-.07-13.43Z"/>
    <path class="st0" d="M120.63,64.55l.17,12.13,16.56,1.28c2.55.2,6.59.64,9.08.66.05-4.41.07-8.81.07-13.22-8.63-.11-17.26-.4-25.88-.85Z"/>
    <path class="st0" d="M68.66,21.08v5.02s9.18-2.55,9.18-2.55c1.68-.47,4.04-1.26,5.7-1.51,4.58-.69,9.25-1.45,13.84-2.07,2.01-.3,4.22-.68,6.22-.92,2.23,1.15,4.46,2.32,6.67,3.51,1.2.64,2.54,1.4,3.74,1.97l6.39-.78c2.1,1.21,4.28,2.51,6.4,3.68.02-2.08.03-4.16.01-6.24-.63-.39-1.42-.91-2.06-1.26-3.21.54-6.76,1.27-9.93,1.72,0-.64,0-1.29,0-1.93l-7.75-4.25c-1.2-.66-2.47-1.38-3.7-2-.15-.08-.33-.05-.5-.02l-11.59,2.01c-1.58.27-3.17.52-4.74.79-3.07.54-6.06,1.78-9.07,2.59-2.91.79-5.86,1.57-8.81,2.25Z"/>
    <path class="st0" d="M142.41,46.08s-.06-.08-.1-.11l-20.97,3.49c-.19,3.05-.4,6.09-.62,9.14-.03.51-.24,3.59-.18,3.91l.1.05c7.18-1.08,14.65-2.11,21.79-3.31-.01-3.3.02-9.59-.02-13.16Z"/>
    <path class="st0" d="M54.83,110.18h-.16c-4.84.83-9.69,1.89-14.5,2.7,0,2.12-.27,19.16-.08,19.6.06,0,.16.01.21,0,4.87-1.48,9.77-3.16,14.62-4.6v-11.87c.02-1.78,0-3.57.04-5.35,0-.23,0-.34-.13-.49Z"/>
    <path class="st0" d="M88.41,108.91c-.14,1.57-.03,4.63-.03,6.33v12.77c2.66.56,5.51,1.03,8.2,1.53,1.76.33,4.25.86,5.98,1.06.04-6.53-.14-13.41.03-19.88-4.64-.59-9.55-1.33-14.17-1.81Z"/>
    <path class="st0" d="M35.81,32.39c-.14,3.52-.48,7.09-.57,10.6l20.27,3.67c.27.05.51.13.76.03.08-.53-.08-3.12-.12-3.79-.16-2.56-.24-5.17-.42-7.72-2.22-.77-4.48-1.66-6.69-2.47-2.66-.95-5.32-1.88-7.99-2.79-1.54-.53-3.45-1.24-4.98-1.68-.13,1.36-.21,2.79-.26,4.16Z"/>
    <path class="st0" d="M36.22,58.22c6.29,1.77,12.97,3.79,19.26,5.4l.04-.8c.31-3.88.42-8.08.8-11.89-6.95-1.85-13.92-3.64-20.9-5.35.24,4.22.51,8.44.8,12.65Z"/>
    <path class="st0" d="M55.52,65.45c-6.46-.76-12.74-1.92-19.32-2.42-.21,1.64-.32,3.49-.46,5.16-.25,2.85-.48,5.69-.69,8.54l19.87-.04,1.32-.02c-.15-3.67-.45-7.55-.72-11.22Z"/>
    <path class="st0" d="M55.36,94.18c-.26-.09-.4-.04-.67,0-5.65.72-11.29,1.82-16.93,2.65-.52.08-1.08.16-1.59.27-.37,4.31-.9,9.22-1.11,13.49l1.54-.35c4.71-1.21,9.45-2.32,14.2-3.32,1.73-.36,3.88-.6,5.47-.97l-.62-8.46c-.03-.45-.19-2.99-.29-3.29Z"/>
    <path class="st0" d="M35.15,79.01c.05,1.13.13,2.28.23,3.41.29,3.22.44,6.49.75,9.71,1.96,0,18.99.14,19.28,0,.06-.22.06-.23.07-.46.08-3.36.5-7.05.67-10.45-6.02-.73-12.11-1.22-18.14-1.93-.94-.11-1.93-.22-2.87-.27Z"/>
    <path class="st0" d="M55.68,33.02l.03-.05c.08-4.37.15-8.73.19-13.1l-12.56-4.91c-2.3-.9-4.9-1.96-7.2-2.78-.03,3.8.24,7.64.25,11.43l18.38,9.08c.23.12.69.36.92.33Z"/>
    <path class="st0" d="M34.42,113.38c-2.45-.2-5.6-1.1-8.01-1.53l-.02,12.34c0,2.71-.05,5.54,0,8.23,1.03.06,11,.63,11.27.5.02-.13.04-.2.04-.33v-13.02c.01-2.07.1-4.7,0-6.71-.7.09-2.78.56-3.29.52Z"/>
    <path class="st0" d="M132.63,39.16l-7.54-4.22c-1.12-.62-2.78-1.61-3.91-2.15.02,4.01.18,8,.23,12,7.05-.23,14.26-.59,21.31-.92,2.63,1.56,5.24,3.14,7.84,4.74,1.02.62,2.73,1.75,3.72,2.27l.11-.03.03-.21v-5.48c-3.71-2.43-7.68-5.06-11.44-7.38l-6.72.87c-1.05.14-2.63.3-3.64.5Z"/>
    <path class="st0" d="M154.25,114.63c-2.06.67-4.92,1.8-7,2.29-.37.09-3.47-.43-4.08-.52v21.63s.05.18.05.18c.2.01,10.04-5.64,11.13-6.26,0-2.05.12-16.83-.07-17.28l-.04-.03Z"/>
    <path class="st0" d="M120.3,25.12c-2.31.3-4.72.55-7,.88-1.99-1.04-3.98-2.1-5.96-3.16-.88-.47-2.38-1.33-3.26-1.72,0,3.31.09,6.64.08,9.92,5.27-.15,10.81-.37,16.07-.63l13.28,7.45c.98-.15,1.95-.28,2.94-.39.11-.74.06-2.4.04-3.21l-11.23-6.33c-1.61-.91-3.33-1.94-4.95-2.81Z"/>
    <path class="st0" d="M99.74,36.16c-.14,0-.2-.01-.34,0-4.47.49-9.75,1-14.15,1.67-.08,3.46-.12,6.92-.14,10.38.88.02,1.77.03,2.65.03,4.64.05,9.44.16,14.08.1-.15-1.16-1.93-11.96-2.11-12.19Z"/>
    <path class="st0" d="M102.48,104.34c-.05,1.06-.18,2.29-.18,3.33,1.44.13,3.12.21,4.52.38l9.29.75c.5-2.4.87-5.23,1.3-7.67.21-1.22.73-3.96.81-5.11l-15.23.17c-.11,2.71-.36,5.44-.5,8.15Z"/>
    <path class="st0" d="M101.51,50.5h-.13c-3.62.52-7.24,1.07-10.86,1.65-1.65.26-3.87.51-5.45.84-.05,1.19-.56,10.76-.45,11.02h.2s14.68-2.14,14.68-2.14c.2-1.24,2.13-10.94,2.01-11.37Z"/>
    <path class="st0" d="M117.84,90.5c-.57-3.12-1.03-6.28-1.61-9.4l-8.55-.81c-1.36-.13-3.42-.38-4.75-.4,0,3.9.09,7.73.12,11.63l15.3,2.47c-.07-1.11-.31-2.38-.51-3.49Z"/>
    <path class="st0" d="M98.72,95.7l-9.25-1.65c-1.69-.3-3.69-.7-5.36-.9l.06,11.06c3.62.64,7.23,1.32,10.84,2.04,1.56.31,4.1.89,5.61,1.06-.14-1.33-.46-3.03-.68-4.38l-1.21-7.23Z"/>
    <path class="st0" d="M116.78,49.81c-.43,0-1,0-1.42.04l-11.76.41c0,3.85.02,7.7.07,11.55,1.41.09,2.82.17,4.23.23,2.07.13,4.15.25,6.22.36,1.5.08,3.23.21,4.73.21-.44-3.94-1.44-8.82-2.06-12.8Z"/>
    <path class="st0" d="M116.91,45.03c.19-1.23,1.97-11.9,1.89-12.24-.23-.11-.11-.07-.4-.02l-9.06,1.78c-1.51.3-3.71.67-5.16,1.05-.06,1.27-.74,12.3-.59,12.58l.26-.04,13.06-3.1Z"/>
    <path class="st0" d="M99.75,79.94c-4.97.31-10.24.75-15.18.94-.13,3.4-.36,6.95-.54,10.36h1.68s13.21.06,13.21.06c.46-2.56.94-5.12,1.44-7.67.22-1.15.54-2.62.7-3.76-.28.01-1.07.03-1.31.07Z"/>
    <path class="st0" d="M99.32,66.46c-4.75-.17-9.96-.45-14.68-.48l-.02,10.25c5.5.47,11.11,1.23,16.57,1.66-.59-3.81-1.32-7.63-1.88-11.43Z"/>
    <path class="st0" d="M118.03,64.65c-4.82.54-9.63,1.13-14.44,1.75-.09,1.2-.86,11.12-.73,11.51.22.1.31.06.55.03l12.94-1.22,1.54-8.07c.11-.57.7-3.55.71-4-.27-.05-.31-.03-.58,0Z"/>
    <path class="st0" d="M20.18,42.68l1.85.03c3.88.11,7.76.2,11.64.27-.12-4.11-.75-8.37-1.01-12.48-.03-.5-.11-2.07-.23-2.44-.15-.1-.08-.08-.19-.09-3.57,1.15-7.29,2.15-10.89,3.24-.2,2.62-.58,5.3-.83,7.92-.11,1.13-.31,2.45-.34,3.56Z"/>
    <path class="st0" d="M19.41,107c4.09.99,8.4,2.2,12.46,3.31l1.25.31c-.31-3.08-.63-6.15-.97-9.23-.13-1.24-.43-3.32-.47-4.51l-6.58-1.62c-1.26-.31-2.96-.76-4.22-.99-.38,2.93-.72,5.87-1.03,8.82-.13,1.21-.26,2.73-.44,3.91Z"/>
    <path class="st0" d="M99.87,31.71c.61-3.37,1.32-6.96,1.82-10.33l-.11-.1c-5.13,1.08-10.4,2.39-15.53,3.54l-.51,7.06c-.08,1.11-.26,2.68-.25,3.74l.09.07h.04c4.56-1.24,10.02-2.57,14.46-3.98Z"/>
    <path class="st0" d="M32.48,76.64l.85.1c-.06-1.39-.27-2.81-.39-4.19-.29-3.2-.77-6.5-1.02-9.7l-10.8-.05c-.16.64-.18,1.46-.24,2.13-.33,3.25-.54,6.53-.86,9.77,4.14.54,8.37,1.4,12.47,1.94Z"/>
    <path class="st0" d="M32.87,45.63c-4.15.73-8.35,1.63-12.5,2.31.12,3.03.25,6.05.4,9.07.04.74.09,3.22.2,3.77,1.14-.21,2.32-.49,3.45-.77,2.51-.62,5.08-1.14,7.57-1.81.09-1.42,1.4-12.14,1.26-12.57-.2-.05-.19-.04-.39,0Z"/>
    <path class="st0" d="M20.1,80.18l.41,7.84c.07,1.19.12,2.99.27,4.15l.16.09c3.63,0,7.26-.05,10.89-.13.39-4.3,1.04-8.86,1.35-13.12-.17.01-.65.03-.79.05-3.97.36-8.35.86-12.28,1.12Z"/>
    <path class="st0" d="M30.61,24.4c.47-.23,1.03-.51,1.48-.77.15-1.2,1.55-11.6,1.41-11.9h-.13c-4.1,1.23-8.18,2.59-12.28,3.82,0,4.43-.04,8.92.02,13.35l.11.09c3.16-1.4,6.27-3.08,9.38-4.59Z"/>
    <path class="st0" d="M83.18,16.2c.64-.21,1.29-.4,1.94-.6-.01-3.88-.02-7.86.04-11.74-1.8-.83-3.61-1.67-5.4-2.52-.84-.4-2.1-1.03-2.94-1.34v18.12s6.37-1.93,6.37-1.93Z"/>
    <path class="st0" d="M147.96,48.99c-.68-.41-2.39-1.5-3-1.76-.07,3.89.03,7.81-.03,11.7,1.53-.11,3.32-.21,4.84-.39,1.5,1.35,2.94,2.75,4.45,4.1h.17c.09-.89.05-2.5.05-3.44v-6.25c-2.15-1.33-4.31-2.65-6.47-3.96Z"/>
    <path class="st0" d="M75.74.19l-.13-.05c-3.91,1.26-7.83,2.48-11.76,3.66-.02,1.8-.02,3.6,0,5.4,1.1-.29,2.19-.58,3.29-.9.17-.04.43-.11.6-.04,2.71,1.08,5.34,2.44,8.04,3.53.02-1.17.12-11.14-.03-11.6Z"/>
    <path class="st0" d="M149.3,72.28c-.28,1.97-.54,4.2-.88,6.15l4.86-.85c.83-.15,2.09-.35,2.88-.56-.53-4.03-1.03-8.3-1.66-12.3-1.29-.51-2.58-1-3.89-1.47l-1.31,9.02Z"/>
    <path class="st0" d="M150.83,95.7c1.21-.09,2.63-.24,3.81-.28.04-.42.09-.85.14-1.27l.93-7.45c.15-1.22.31-2.91.52-4.1-2.46-.54-5.26-1.2-7.73-1.65l2.32,14.76Z"/>
    <path class="st0" d="M154.23,97.57c-1.14.3-2.3.58-3.45.83-.66,5.05-1.6,10.21-2.21,15.25l1.4-.49c1.79-.61,4.31-1.38,6-2.07-.25-2.13-1.29-10.68-1.62-13.42l-.13-.1Z"/>
    <path class="st0" d="M83.29,38.2l-.17-.02c-2.16.49-4.39,1.12-6.55,1.67l.09,7.55c0,.48-.03,3.06.15,3.24,1.43-.6,2.84-1.23,4.25-1.87.26-.97,2.31-10.25,2.23-10.58Z"/>
    <path class="st0" d="M80.88,52.82c-1.24-.1-2.88-.27-4.09-.27-.12,3.33-.21,6.67-.28,10l6.33,1.48c.21-.4-1.69-10.04-1.96-11.21Z"/>
    <path class="st0" d="M81.57,25.09c-1.31.24-2.62.48-3.93.74-.19,1.98-.4,3.95-.63,5.92-.11,1.01-.22,2.51-.39,3.48.8.1,1.61.19,2.41.28,1.33.15,3.19.41,4.49.47-.16-.96-1.81-10.77-1.96-10.91Z"/>
    <path class="st0" d="M76.2,94.02c0,1.14.09,10.15.29,10.41,1.27-.04,2.55-.1,3.82-.17l1.38-7.78c.09-.52.55-2.89.55-3.31l-.14-.03c-1.94.22-4.04.69-5.9.89Z"/>
    <path class="st0" d="M82.3,66.18l-5.83,1.19c0,1.12-.04,9.99.12,10.25.1-.01.2-.01.29-.04,1.25-.34,2.55-.68,3.79-1.05.44-2.41,1.01-4.8,1.48-7.2.16-.83.55-2.34.6-3.11-.24-.13-.12-.08-.46-.04Z"/>
    <path class="st0" d="M82.15,89.62c-.47-3.06-1.15-6.1-1.63-9.15-1.33-.28-2.64-.61-3.97-.91-.08,3.13-.34,6.6-.34,9.69,1.89.57,4.11,1.29,5.99,1.75l.14-.05c0-.48-.12-.85-.19-1.32Z"/>
  </g>
</svg>
