<?xml version="1.0" encoding="UTF-8"?>
<svg id="_Слой_1" data-name="Слой_1" xmlns="http://www.w3.org/2000/svg" version="1.1" viewBox="0 0 170.36 187.13">
  <!-- Generator: Adobe Illustrator 30.5.1, SVG Export Plug-In . SVG Version: 2.1.4 Build 3)  -->
  <defs>
    <style>
      .st0 {
        fill: #bc9853;
      }

      .st1 {
        display: none;
      }
    </style>
  </defs>
  <g id="Aurum_Fort" class="st1">
    <path class="st0" d="M9.62,155.61L.34,177.56h1.44l2.76-6.46h10.81l3.01,6.46h3.04l-10.22-21.94h-1.57ZM5.13,169.69l4.51-10.56h.13l4.92,10.56H5.13Z"/>
    <path class="st0" d="M35.29,171.6c0,.82-.11,1.52-.34,2.1s-.53,1.07-.91,1.46c-.38.39-.81.67-1.32.86-.5.19-1.02.28-1.57.28-.88,0-1.56-.17-2.05-.52-.49-.34-.86-.75-1.1-1.21-.24-.46-.38-.91-.42-1.36-.04-.45-.06-.78-.06-.99v-10.34h-2.66v10.19c0,.38.04.89.11,1.55s.29,1.31.64,1.94.91,1.19,1.68,1.66c.76.47,1.83.71,3.21.71.61.02,1.27-.1,1.99-.36.72-.26,1.45-.76,2.18-1.49l.5-.5h.13v1.97h2.66v-15.67h-2.66v9.72Z"/>
    <path class="st0" d="M51.54,162.16c-.26-.17-.52-.3-.78-.39-.26-.09-.5-.16-.72-.19-.22-.03-.38-.05-.49-.05-.88,0-1.61.24-2.19.72-.59.48-1.07,1.19-1.44,2.13h-.19v-2.51h-2.66v15.67h2.66v-9.47c0-.86.1-1.58.3-2.18.2-.59.45-1.08.77-1.46s.66-.65,1.03-.82c.38-.17.74-.25,1.1-.25.48,0,.92.16,1.33.47.41.31.71.61.89.88l1.07-1.94c-.19-.25-.41-.46-.67-.63Z"/>
    <path class="st0" d="M65.48,171.6c0,.82-.11,1.52-.34,2.1s-.53,1.07-.91,1.46c-.38.39-.81.67-1.32.86-.5.19-1.02.28-1.57.28-.88,0-1.56-.17-2.05-.52-.49-.34-.86-.75-1.1-1.21-.24-.46-.38-.91-.42-1.36-.04-.45-.06-.78-.06-.99v-10.34h-2.66v10.19c0,.38.04.89.11,1.55s.29,1.31.64,1.94.91,1.19,1.68,1.66c.76.47,1.83.71,3.21.71.61.02,1.27-.1,1.99-.36.72-.26,1.45-.76,2.18-1.49l.5-.5h.13v1.97h2.66v-15.67h-2.66v9.72Z"/>
    <path class="st0" d="M94.33,163.34c-.35-.51-.85-.94-1.51-1.29s-1.53-.52-2.62-.52c-.31,0-.68.03-1.1.09-.42.06-.86.2-1.32.41-.46.21-.9.51-1.33.91-.43.4-.8.92-1.11,1.57h-.22c-.12-.33-.3-.67-.53-1.02-.23-.34-.52-.66-.88-.96s-.78-.53-1.27-.72c-.49-.19-1.08-.28-1.77-.28-.31,0-.69.04-1.13.11-.44.07-.88.21-1.32.42-.44.21-.85.5-1.24.88s-.71.87-.96,1.47h-.13v-2.54h-2.66v15.67h2.66v-8.93c0-.38.03-.87.09-1.49.06-.62.22-1.22.49-1.82.26-.6.66-1.11,1.21-1.54.54-.43,1.31-.64,2.29-.64.71,0,1.26.16,1.65.47s.67.7.86,1.16.3.94.33,1.44c.03.5.05.94.05,1.32v10.03h2.66v-8.93c0-.46.04-1.01.13-1.65.08-.64.26-1.24.53-1.8.27-.56.66-1.04,1.18-1.44.51-.4,1.21-.6,2.08-.6.65,0,1.17.09,1.57.28.4.19.71.47.92.85s.37.84.44,1.38c.07.54.11,1.17.11,1.88v10.03h2.66v-10.94c0-.48-.05-1.02-.16-1.61-.11-.6-.33-1.15-.67-1.66Z"/>
    <polygon class="st0" points="112.4 177.56 115.25 177.56 115.25 166.65 124.97 166.65 124.97 165.2 115.25 165.2 115.25 157.34 126.57 157.34 126.57 155.61 112.4 155.61 112.4 177.56"/>
    <path class="st0" d="M143.13,164.01c-.7-.75-1.55-1.35-2.54-1.8-.99-.45-2.11-.67-3.34-.67s-2.39.22-3.4.67-1.87,1.05-2.57,1.8c-.7.75-1.24,1.63-1.63,2.62-.39.99-.58,2.03-.58,3.12s.19,2.1.58,3.09c.39.99.93,1.87,1.63,2.62.7.75,1.56,1.35,2.57,1.8s2.15.67,3.4.67,2.34-.22,3.34-.66c.99-.44,1.84-1.03,2.54-1.79.7-.75,1.24-1.62,1.61-2.62.38-.99.56-2.03.56-3.12s-.19-2.13-.56-3.12-.91-1.87-1.61-2.62ZM141.86,173.28c-.31.91-.72,1.61-1.22,2.12-.5.5-1.06.84-1.66,1.02-.61.18-1.19.27-1.75.27s-1.15-.09-1.76-.27c-.61-.18-1.17-.52-1.68-1.02-.51-.5-.93-1.21-1.25-2.12-.32-.91-.49-2.08-.49-3.53s.16-2.65.49-3.56c.32-.91.74-1.61,1.25-2.12.51-.5,1.07-.84,1.68-1.02.61-.18,1.19-.27,1.76-.27s1.15.09,1.75.27c.61.18,1.16.52,1.66,1.02.5.5.91,1.21,1.22,2.12s.47,2.1.47,3.56-.16,2.62-.47,3.53Z"/>
    <path class="st0" d="M157.87,162.16c-.26-.17-.52-.3-.78-.39-.26-.09-.5-.16-.72-.19-.22-.03-.38-.05-.49-.05-.88,0-1.61.24-2.19.72s-1.07,1.19-1.44,2.13h-.19v-2.51h-2.66v15.67h2.66v-9.47c0-.86.1-1.58.3-2.18.2-.59.46-1.08.77-1.46s.66-.65,1.03-.82c.38-.17.74-.25,1.1-.25.48,0,.92.16,1.33.47.41.31.71.61.89.88l1.07-1.94c-.19-.25-.41-.46-.67-.63Z"/>
    <path class="st0" d="M168.88,174.51c-.21.44-.48.85-.81,1.22-.33.38-.75.56-1.25.56-.4,0-.71-.09-.92-.28-.22-.19-.38-.42-.49-.71-.11-.28-.17-.58-.19-.91-.02-.32-.03-.61-.03-.86v-10.41h3.79v-1.25h-3.79v-4.83h-2.66v4.83h-2.73v1.25h2.73v9.65c0,.82.12,1.53.38,2.13.25.61.58,1.1.99,1.49.41.39.87.67,1.39.86.52.19,1.05.28,1.6.28,1.3,0,2.46-.51,3.48-1.54l-1.47-1.5Z"/>
  </g>
  <g id="Aurum_Fort1" data-name="Aurum_Fort">
    <path class="st0" d="M3.22,161.91l-2.12,4.96H0l7.12-16.84h1.2l7.84,16.84h-2.33l-2.31-4.96H3.22ZM7.24,152.72h-.1l-3.46,8.11h7.34l-3.78-8.11Z"/>
    <path class="st0" d="M21,150.03v10.99c0,.32,0,.64.02.96.02.32.07.64.17.95s.24.63.43.95c.19.32.47.64.84.96.46.42.96.73,1.48.94.52.21,1.12.31,1.79.31.79,0,1.54-.11,2.26-.34s1.37-.65,1.95-1.27c.32-.35.57-.71.73-1.06.17-.35.29-.71.37-1.07.08-.36.13-.72.14-1.08.02-.36.02-.72.02-1.07v-10.17h1.06v10.97c0,.85-.14,1.65-.41,2.39-.27.75-.68,1.4-1.21,1.96-.54.56-1.2,1-2,1.32-.79.32-1.7.48-2.73.48-1.64,0-2.93-.23-3.87-.69s-1.66-1.03-2.14-1.71-.79-1.42-.91-2.21c-.13-.79-.19-1.52-.19-2.18v-10.34h2.19Z"/>
    <path class="st0" d="M42.55,150.03c1.07,0,1.96.15,2.67.44.71.3,1.26.67,1.67,1.11.41.44.7.92.87,1.43.17.51.25.99.25,1.42,0,.48-.08.97-.24,1.48-.16.5-.41.97-.76,1.41-.35.43-.8.79-1.35,1.08s-1.21.46-1.98.5v.1l.24.12c.19.1.36.22.49.36.14.14.31.38.53.7.22.32.51.77.87,1.36.37.59.88,1.37,1.55,2.35.22.34.44.64.64.9.21.26.42.49.65.67.22.18.46.33.72.42.26.1.55.14.89.14.08,0,.16,0,.24-.01.08,0,.16-.02.24-.04v.89c-.22.13-.45.21-.67.24s-.51.05-.87.05c-.48,0-.89-.06-1.24-.19-.34-.13-.65-.3-.92-.52-.27-.22-.52-.48-.75-.78-.23-.3-.46-.64-.7-1.01l-1.91-2.81c-.29-.45-.54-.83-.75-1.13s-.43-.55-.68-.75c-.24-.19-.51-.33-.81-.41-.3-.08-.67-.12-1.12-.12h-1.06v7.43h-2.19v-16.84h5.46ZM39.28,158.35h2.49c.64,0,1.21-.11,1.7-.34.49-.22.91-.52,1.24-.88.34-.36.59-.76.76-1.2.17-.44.25-.88.25-1.31,0-.51-.09-.99-.28-1.42-.19-.43-.45-.81-.81-1.12-.35-.31-.78-.56-1.27-.73-.49-.18-1.04-.26-1.65-.26h-2.44v7.26Z"/>
    <path class="st0" d="M55.59,150.03v10.99c0,.32,0,.64.02.96.02.32.07.64.17.95s.24.63.43.95c.19.32.47.64.84.96.46.42.96.73,1.48.94.52.21,1.12.31,1.79.31.79,0,1.54-.11,2.26-.34s1.37-.65,1.95-1.27c.32-.35.57-.71.73-1.06.17-.35.29-.71.37-1.07.08-.36.13-.72.14-1.08.02-.36.02-.72.02-1.07v-10.17h1.06v10.97c0,.85-.14,1.65-.41,2.39-.27.75-.68,1.4-1.21,1.96-.54.56-1.2,1-2,1.32-.79.32-1.7.48-2.73.48-1.64,0-2.93-.23-3.87-.69s-1.66-1.03-2.14-1.71-.79-1.42-.91-2.21c-.13-.79-.19-1.52-.19-2.18v-10.34h2.19Z"/>
    <path class="st0" d="M81.03,164.49h.1l7.79-14.46h1.66v16.84h-2.19v-13.64h-.1l-7.6,13.93h-.43l-7.43-14.02h-.1v13.73h-1.06v-16.84h1.64l7.72,14.46Z"/>
    <path class="st0" d="M115.65,150.03v1.32h-8.68v6.04h7.46v1.11h-7.46v8.37h-2.19v-16.84h10.87Z"/>
    <path class="st0" d="M118.09,155.54c.34-1.03.88-1.97,1.62-2.83s1.68-1.57,2.81-2.13,2.5-.84,4.09-.84,2.99.29,4.17.85c1.18.57,2.15,1.29,2.92,2.15.77.87,1.34,1.81,1.71,2.83s.55,1.98.55,2.87c0,.59-.08,1.22-.25,1.88-.17.66-.42,1.31-.75,1.96s-.75,1.27-1.26,1.85c-.51.59-1.12,1.1-1.82,1.55-.7.45-1.48.81-2.36,1.07-.88.26-1.85.4-2.92.4-1.59,0-2.95-.29-4.09-.85-1.14-.57-2.08-1.29-2.81-2.15-.74-.87-1.28-1.81-1.62-2.83-.35-1.02-.52-1.98-.52-2.88s.17-1.88.52-2.91ZM120.45,161.54c.34.94.82,1.74,1.42,2.42.6.67,1.31,1.2,2.13,1.58s1.71.57,2.67.57,1.84-.19,2.68-.57,1.58-.9,2.21-1.58c.63-.67,1.13-1.48,1.5-2.42.37-.94.55-1.97.55-3.09s-.18-2.15-.55-3.09c-.37-.94-.87-1.74-1.5-2.42-.63-.67-1.37-1.2-2.21-1.58s-1.73-.57-2.68-.57-1.85.19-2.67.57-1.53.9-2.13,1.58c-.6.67-1.07,1.48-1.42,2.42-.35.94-.52,1.97-.52,3.09s.17,2.15.52,3.09Z"/>
    <path class="st0" d="M145.52,150.03c1.07,0,1.96.15,2.67.44.71.3,1.26.67,1.67,1.11.41.44.7.92.87,1.43.17.51.25.99.25,1.42,0,.48-.08.97-.24,1.48-.16.5-.41.97-.76,1.41-.35.43-.8.79-1.35,1.08-.55.29-1.21.46-1.98.5v.1l.24.12c.19.1.36.22.49.36.13.14.31.38.53.7.21.32.51.77.87,1.36.37.59.88,1.37,1.55,2.35.22.34.44.64.64.9.21.26.42.49.65.67.22.18.46.33.72.42.26.1.55.14.89.14.08,0,.16,0,.24-.01.08,0,.16-.02.24-.04v.89c-.22.13-.45.21-.67.24s-.51.05-.87.05c-.48,0-.89-.06-1.24-.19-.34-.13-.65-.3-.92-.52s-.52-.48-.75-.78c-.23-.3-.46-.64-.7-1.01l-1.91-2.81c-.29-.45-.54-.83-.75-1.13s-.43-.55-.68-.75c-.24-.19-.51-.33-.81-.41-.3-.08-.67-.12-1.12-.12h-1.06v7.43h-2.19v-16.84h5.46ZM142.25,158.35h2.49c.64,0,1.21-.11,1.7-.34s.9-.52,1.24-.88c.34-.36.59-.76.76-1.2.17-.44.25-.88.25-1.31,0-.51-.09-.99-.28-1.42-.19-.43-.46-.81-.81-1.12-.35-.31-.78-.56-1.27-.73-.49-.18-1.04-.26-1.65-.26h-2.44v7.26Z"/>
    <path class="st0" d="M161.37,166.87v-15.51h-6.45v-1.32h15.08v1.32h-6.45v15.51h-2.19Z"/>
  </g>
  <g id="Club_residence">
    <path class="st0" d="M33.76,185.97c.41-.16.81-.41,1.23-.75l.51.67c-.4.31-.89.59-1.47.85s-1.26.39-2.04.39c-.69,0-1.32-.12-1.87-.36s-1.03-.57-1.42-.99c-.39-.42-.7-.91-.91-1.48-.21-.57-.32-1.19-.32-1.84,0-.62.1-1.21.29-1.77.19-.55.49-1.04.87-1.45.39-.41.87-.74,1.43-.98s1.22-.36,1.96-.36c.35,0,.72.03,1.1.1.38.07.74.18,1.08.35s.63.39.89.67c.26.28.45.63.56,1.05h-1.22c-.13-.41-.39-.76-.79-1.04-.4-.28-.87-.42-1.41-.42-.33,0-.68.07-1.04.2-.36.14-.7.35-1,.65s-.55.7-.75,1.2c-.2.5-.3,1.11-.3,1.83s.09,1.28.27,1.76.43.86.73,1.15c.31.29.66.5,1.05.63.39.13.8.19,1.23.19.48,0,.93-.08,1.33-.24Z"/>
    <path class="st0" d="M39.45,186.92h-1.5v-12.36h1.5v12.36Z"/>
    <path class="st0" d="M44.13,178.09v5.83c0,.12.01.3.04.56s.1.51.24.77.34.49.62.68c.28.19.66.29,1.16.29.31,0,.6-.05.88-.16.28-.11.53-.27.74-.49.21-.22.38-.49.51-.82.13-.33.19-.72.19-1.18v-5.47h1.5v8.83h-1.5v-1.11h-.07l-.28.28c-.41.41-.82.69-1.23.84-.41.15-.78.21-1.12.2-.78,0-1.38-.13-1.81-.4-.43-.26-.74-.58-.94-.94-.2-.36-.32-.72-.36-1.09-.04-.37-.06-.66-.06-.87v-5.74h1.5Z"/>
    <path class="st0" d="M52.88,174.56h1.5v4.98h.07c.12-.31.27-.56.47-.77.19-.21.41-.37.66-.5.25-.13.51-.22.79-.28.28-.06.56-.09.84-.09.59,0,1.13.11,1.62.33.49.22.92.53,1.28.93.36.4.64.88.84,1.45.2.56.3,1.19.3,1.89s-.1,1.34-.3,1.92-.48,1.06-.84,1.46c-.36.41-.79.72-1.28.94-.49.22-1.04.33-1.62.33-1.4,0-2.32-.55-2.75-1.64h-.07v1.43h-1.5v-12.36ZM54.39,183.38c0,.39.06.76.19,1.1.12.35.3.65.52.9.22.25.49.45.79.6s.62.22.96.22c.36,0,.71-.07,1.05-.2.34-.13.63-.35.87-.64s.44-.68.59-1.15c.15-.47.22-1.04.22-1.7s-.07-1.24-.22-1.71c-.15-.47-.35-.86-.6-1.16-.25-.3-.54-.52-.87-.65-.33-.14-.68-.2-1.04-.2-.33,0-.64.07-.94.2-.29.14-.55.33-.78.6-.22.27-.4.59-.54.96-.14.38-.2.81-.2,1.29v1.54Z"/>
    <path class="st0" d="M71.23,178.09v1.41h.11c.21-.53.48-.93.81-1.2s.74-.41,1.24-.41c.06,0,.15,0,.27.03.12.02.26.05.41.11.15.05.29.13.44.22.15.09.27.21.38.35l-.6,1.09c-.11-.15-.27-.32-.5-.49s-.48-.26-.75-.26c-.2,0-.41.05-.62.14-.21.09-.41.25-.58.46-.18.21-.32.49-.43.82-.11.33-.17.74-.17,1.23v5.33h-1.5v-8.83h1.5Z"/>
    <path class="st0" d="M77.62,182.89c0,.72.11,1.31.32,1.77s.48.82.79,1.08c.32.26.66.44,1.03.54.37.1.72.15,1.05.15.29,0,.56-.03.8-.1.24-.06.47-.16.7-.27.22-.12.44-.26.66-.44s.45-.37.7-.58l.56.56c-.47.49-1.02.87-1.66,1.14-.64.26-1.33.4-2.08.4s-1.45-.13-2.02-.4-1.04-.62-1.41-1.06c-.37-.44-.65-.94-.83-1.5s-.27-1.13-.27-1.72c0-.71.11-1.34.32-1.9.21-.56.51-1.04.88-1.43.38-.39.82-.69,1.32-.9.51-.21,1.06-.31,1.66-.31.56,0,1.1.09,1.61.28.51.19.95.47,1.33.85s.69.85.91,1.43c.22.58.34,1.26.34,2.05v.37h-6.69ZM82.76,182.18c0-1.14-.23-2.04-.69-2.69s-1.11-.98-1.94-.98c-.43,0-.81.1-1.12.31-.32.21-.58.48-.78.82-.21.34-.36.73-.46,1.17-.1.44-.15.9-.15,1.37h5.14Z"/>
    <path class="st0" d="M91.23,180.1c0-.15-.04-.32-.12-.49-.08-.18-.21-.34-.39-.49-.18-.15-.39-.27-.65-.37-.26-.1-.56-.15-.92-.15s-.65.05-.88.15c-.23.1-.42.22-.56.37-.14.15-.24.31-.3.48-.06.17-.09.33-.09.49,0,.36.13.65.4.85.26.2.6.37.99.51.4.14.83.28,1.29.41.46.13.89.3,1.29.5.4.21.73.48.99.82.26.34.4.79.4,1.36,0,.78-.27,1.4-.82,1.88s-1.36.71-2.45.71c-.6,0-1.13-.07-1.58-.22s-.84-.34-1.15-.59c-.31-.25-.54-.53-.7-.84-.15-.31-.23-.63-.23-.96h1.15c0,.14.04.32.13.53.09.21.23.42.44.63.21.21.47.38.79.53.32.15.72.22,1.19.22.38,0,.69-.05.94-.15.25-.1.44-.22.58-.37.14-.15.24-.31.29-.49.05-.18.08-.35.08-.51,0-.39-.13-.69-.39-.92s-.58-.41-.97-.56c-.39-.15-.81-.28-1.26-.41-.45-.12-.87-.29-1.26-.49-.39-.2-.71-.46-.97-.79-.26-.33-.39-.78-.39-1.34,0-.41.08-.77.23-1.09.15-.31.36-.57.62-.79.26-.21.57-.37.93-.48.36-.11.74-.16,1.15-.16.43,0,.84.06,1.22.17.38.11.72.26,1,.46s.51.43.68.7.25.56.25.88h-1Z"/>
    <path class="st0" d="M95.71,174.63c.19-.19.41-.28.67-.28s.48.09.67.28c.19.19.28.41.28.67s-.09.48-.28.67-.41.28-.67.28-.48-.09-.67-.28c-.19-.19-.28-.41-.28-.67s.09-.48.28-.67ZM97.16,178.09v8.83h-1.5v-8.83h1.5Z"/>
    <path class="st0" d="M108.35,186.92h-1.5v-1.43h-.07c-.45,1.09-1.37,1.64-2.75,1.64-.59,0-1.13-.11-1.62-.33-.49-.22-.92-.53-1.28-.94-.36-.41-.64-.89-.84-1.46-.2-.57-.3-1.21-.3-1.92s.1-1.32.3-1.89c.2-.57.48-1.05.84-1.45.36-.4.79-.71,1.28-.93.49-.22,1.04-.33,1.62-.33.28,0,.56.03.84.09.28.06.54.15.79.28.25.13.47.3.66.5s.35.46.47.77h.07v-4.98h1.5v12.36ZM106.85,181.85c0-.48-.07-.91-.2-1.29-.14-.38-.32-.7-.54-.96-.22-.26-.48-.46-.78-.6s-.61-.2-.94-.2c-.37,0-.71.07-1.04.2s-.62.35-.87.65c-.25.3-.45.69-.6,1.16-.15.47-.22,1.04-.22,1.71s.07,1.22.22,1.7c.15.47.34.85.59,1.15s.54.51.87.64c.33.14.68.2,1.06.2.34,0,.66-.07.96-.22s.56-.35.78-.6c.22-.25.39-.55.52-.9.13-.35.19-.71.19-1.1v-1.54Z"/>
    <path class="st0" d="M112.33,182.89c0,.72.11,1.31.32,1.77.21.46.48.82.79,1.08.32.26.66.44,1.03.54.37.1.72.15,1.05.15.29,0,.56-.03.8-.1.24-.06.47-.16.7-.27.22-.12.44-.26.66-.44.22-.18.45-.37.7-.58l.56.56c-.47.49-1.02.87-1.66,1.14-.63.26-1.33.4-2.08.4s-1.45-.13-2.02-.4c-.57-.26-1.04-.62-1.41-1.06-.37-.44-.65-.94-.83-1.5s-.27-1.13-.27-1.72c0-.71.11-1.34.32-1.9.21-.56.51-1.04.88-1.43.38-.39.82-.69,1.32-.9.51-.21,1.06-.31,1.66-.31.56,0,1.1.09,1.61.28.51.19.95.47,1.33.85.38.38.69.85.91,1.43.22.58.33,1.26.33,2.05v.37h-6.69ZM117.46,182.18c0-1.14-.23-2.04-.69-2.69s-1.11-.98-1.94-.98c-.43,0-.81.1-1.12.31-.31.21-.58.48-.78.82-.21.34-.36.73-.46,1.17s-.15.9-.15,1.37h5.14Z"/>
    <path class="st0" d="M127.19,186.92v-5.81c0-.12-.01-.31-.04-.56s-.1-.52-.22-.78c-.12-.26-.32-.49-.59-.68-.27-.19-.65-.29-1.15-.29-.31,0-.6.05-.89.16-.29.11-.54.27-.77.49s-.4.5-.53.83c-.13.33-.19.72-.19,1.18v5.46h-1.5v-8.83h1.5v1.13h.07l.28-.28c.41-.41.83-.69,1.25-.84s.81-.21,1.15-.2c.78,0,1.38.13,1.8.4s.73.58.93.94.31.72.34,1.09c.04.37.05.66.05.87v5.72h-1.5Z"/>
    <path class="st0" d="M137.33,185.97c.41-.16.81-.41,1.23-.75l.51.67c-.4.31-.89.59-1.47.85s-1.26.39-2.04.39c-.69,0-1.32-.12-1.87-.36-.55-.24-1.03-.57-1.42-.99s-.7-.91-.91-1.48c-.21-.57-.32-1.19-.32-1.84,0-.62.1-1.21.29-1.77.19-.55.49-1.04.87-1.45s.87-.74,1.43-.98c.57-.24,1.22-.36,1.96-.36.35,0,.72.03,1.1.1.38.07.74.18,1.08.35.33.17.63.39.89.67s.45.63.56,1.05h-1.22c-.13-.41-.39-.76-.79-1.04s-.87-.42-1.41-.42c-.33,0-.68.07-1.04.2-.36.14-.7.35-1,.65s-.55.7-.75,1.2c-.2.5-.3,1.11-.3,1.83s.09,1.28.27,1.76c.18.48.43.86.73,1.15.31.29.66.5,1.05.63.39.13.8.19,1.23.19.48,0,.93-.08,1.33-.24Z"/>
    <path class="st0" d="M142.32,182.89c0,.72.11,1.31.32,1.77s.48.82.79,1.08c.32.26.66.44,1.03.54.37.1.72.15,1.05.15.29,0,.56-.03.8-.1.24-.06.47-.16.7-.27.22-.12.44-.26.66-.44.22-.18.45-.37.7-.58l.56.56c-.47.49-1.02.87-1.66,1.14-.63.26-1.33.4-2.08.4s-1.45-.13-2.02-.4-1.04-.62-1.41-1.06c-.37-.44-.65-.94-.83-1.5s-.27-1.13-.27-1.72c0-.71.11-1.34.32-1.9.21-.56.51-1.04.88-1.43.38-.39.82-.69,1.32-.9.51-.21,1.06-.31,1.66-.31.56,0,1.1.09,1.61.28.51.19.95.47,1.33.85.38.38.69.85.91,1.43.22.58.33,1.26.33,2.05v.37h-6.69ZM147.46,182.18c0-1.14-.23-2.04-.69-2.69s-1.11-.98-1.94-.98c-.43,0-.81.1-1.12.31s-.58.48-.78.82c-.21.34-.36.73-.46,1.17s-.15.9-.15,1.37h5.14Z"/>
  </g>
  <g id="Logo">
    <path class="st0" d="M58.48,15.94c2.83,1.19,5.89,2.44,8.68,3.7v-10.16c-2.8.75-5.97,1.52-8.71,2.35-5.22-2.39-10.47-4.73-15.74-7.01l-4.29-1.87c-.42-.18-2.32-1.1-2.66-1.02-5.82,1.45-11.64,2.86-17.48,4.24v5.05c-1.42.38-2.83.77-4.24,1.18l-.28,119.41c3.82.15,7.63.33,11.45.52l.02-20.75-8.65-1.69c.65-3.87,1.32-7.74,2.02-11.6.22-1.26.81-4.04.79-5.18-.02-.85-.38-3.28-.5-4.22l-1.01-7.87c-.1-.79-.43-2.89-.4-3.54.06-1.13.35-2.92.51-4.07l1.12-7.77c.14-.95.49-3.11.45-3.97-.03-.93-.33-2.81-.45-3.8l-1.11-8.58c-.13-1.01-.47-3.15-.39-4.07.1-1.11.37-2.7.55-3.83l1.12-7.16c.13-.83.54-3.08.51-3.82-.03-.89-.37-2.77-.5-3.74l-1.18-8.57c-.16-1.16-.49-3.19-.54-4.32,5.87-1.63,11.65-3.32,17.55-4.89,2.61,1.01,5.21,2.06,7.79,3.15,3.17,1.32,6.33,2.68,9.48,4.06,1.92.84,3.95,1.78,5.87,2.57l-.67,10.41c-.1,1.55-.38,3.99-.29,5.51.28,4.79,1,9.65,1.23,14.44.05.99-.28,3.04-.39,4.08l-.76,7.5c-.11,1.11-.35,3.02-.31,4.1.04,1.08.25,2.65.37,3.75l.71,6.57c.1.96.3,2.45.31,3.38.02,1.19-.25,3.09-.4,4.32l-.72,6.49c-.08.71-.37,2.97-.36,3.61.02,1.64.38,4.06.6,5.75.45,3.45.79,7,1.27,10.42l-2.21.48v17.87c3.48-1.03,6.96-2.09,10.43-3.16l.09-102.85c-2.54-1.04-6.29-2.55-8.71-3.71l.03-1.69Z"/>
    <path class="st0" d="M75.11,106.33l-.98-9.52c-.18-1.72-.48-4.01-.47-5.72,0-.74.28-2.65.38-3.46l.71-5.58c.15-1.16.38-2.72.35-3.86-.04-1.13-.19-2.45-.3-3.59l-.61-5.9c-.12-1.17-.35-2.99-.29-4.12.06-1.05.26-2.49.39-3.56l.69-6.03c.1-.93.27-2.27.29-3.19.02-1.06-.19-2.64-.31-3.73l-.78-6.93c-.15-1.34-.35-2.57-.22-3.94.12-1.23,2.09-10.67,1.83-11h-.08c-2.35.51-4.7,1.03-7.05,1.57v84.59c-.02,3.94-.08,8.06-.01,12,5.31,1.05,11.23,2.2,16.54,3.08.61.11,1.21.22,1.82.32.17-6.17.02-12.94.01-19.14-3.78-.75-8.14-1.71-11.91-2.29Z"/>
    <path class="st0" d="M122.79,134.4l14.16,2.67c.94.18,3.12.6,4.21.76.04,0,.17-.06.2-.09v-21.65c-6.15-.9-12.41-1.63-18.58-2.49,0,6.89-.07,13.92,0,20.8Z"/>
    <path class="st0" d="M127.82,97.33c-2.51-.39-5.12-.83-7.64-1.14-.03,4.27.14,8.69.23,12.97l16.63,2.86c2.85.5,6.63,1.25,9.46,1.61.01-4.49,0-8.98-.04-13.46-2.07-.24-4.38-.64-6.46-.96l-12.18-1.88Z"/>
    <path class="st0" d="M104.28,111.09c-.15,1.25-.04,5.1-.04,6.52v13.35c5.52.97,11.38,2.26,16.85,3.12v-20.73s-10.83-1.47-10.83-1.47c-1.85-.25-4.16-.63-5.99-.8Z"/>
    <path class="st0" d="M146.43,80.79c-.69.02-1.39.03-2.08.05l-23.58.62c-.14,2.83-.3,5.65-.47,8.48-.08,1.33-.21,2.89-.2,4.2h2.19s24.22.09,24.22.09l-.07-13.43Z"/>
    <path class="st0" d="M120.63,64.55l.17,12.13,16.56,1.28c2.55.2,6.59.64,9.08.66.05-4.41.07-8.81.07-13.22-8.63-.11-17.26-.4-25.88-.85Z"/>
    <path class="st0" d="M68.66,21.08v5.02s9.18-2.55,9.18-2.55c1.68-.47,4.04-1.26,5.7-1.51,4.58-.69,9.25-1.45,13.84-2.07,2.01-.3,4.22-.68,6.22-.92,2.23,1.15,4.46,2.32,6.67,3.51,1.2.64,2.54,1.4,3.74,1.97l6.39-.78c2.1,1.21,4.28,2.51,6.4,3.68.02-2.08.03-4.16.01-6.24-.63-.39-1.42-.91-2.06-1.26-3.21.54-6.76,1.27-9.93,1.72,0-.64,0-1.29,0-1.93l-7.75-4.25c-1.2-.66-2.47-1.38-3.7-2-.15-.08-.33-.05-.5-.02l-11.59,2.01c-1.58.27-3.17.52-4.74.79-3.07.54-6.06,1.78-9.07,2.59-2.91.79-5.86,1.57-8.81,2.25Z"/>
    <path class="st0" d="M142.41,46.08s-.06-.08-.1-.11l-20.97,3.49c-.19,3.05-.4,6.09-.62,9.14-.03.51-.24,3.59-.18,3.91l.1.05c7.18-1.08,14.65-2.11,21.79-3.31-.01-3.3.02-9.59-.02-13.16Z"/>
    <path class="st0" d="M54.83,110.18h-.16c-4.84.83-9.69,1.89-14.5,2.7,0,2.12-.27,19.16-.08,19.6.06,0,.16.01.21,0,4.87-1.48,9.77-3.16,14.62-4.6v-11.87c.02-1.78,0-3.57.04-5.35,0-.23,0-.34-.13-.49Z"/>
    <path class="st0" d="M88.41,108.91c-.14,1.57-.03,4.63-.03,6.33v12.77c2.66.56,5.51,1.03,8.2,1.53,1.76.33,4.25.86,5.98,1.06.04-6.53-.14-13.41.03-19.88-4.64-.59-9.55-1.33-14.17-1.81Z"/>
    <path class="st0" d="M35.81,32.39c-.14,3.52-.48,7.09-.57,10.6l20.27,3.67c.27.05.51.13.76.03.08-.53-.08-3.12-.12-3.79-.16-2.56-.24-5.17-.42-7.72-2.22-.77-4.48-1.66-6.69-2.47-2.66-.95-5.32-1.88-7.99-2.79-1.54-.53-3.45-1.24-4.98-1.68-.13,1.36-.21,2.79-.26,4.16Z"/>
    <path class="st0" d="M36.22,58.22c6.29,1.77,12.97,3.79,19.26,5.4l.04-.8c.31-3.88.42-8.08.8-11.89-6.95-1.85-13.92-3.64-20.9-5.35.24,4.22.51,8.44.8,12.65Z"/>
    <path class="st0" d="M55.52,65.45c-6.46-.76-12.74-1.92-19.32-2.42-.21,1.64-.32,3.49-.46,5.16-.25,2.85-.48,5.69-.69,8.54l19.87-.04,1.32-.02c-.15-3.67-.45-7.55-.72-11.22Z"/>
    <path class="st0" d="M55.36,94.18c-.26-.09-.4-.04-.67,0-5.65.72-11.29,1.82-16.93,2.65-.52.08-1.08.16-1.59.27-.37,4.31-.9,9.22-1.11,13.49l1.54-.35c4.71-1.21,9.45-2.32,14.2-3.32,1.73-.36,3.88-.6,5.47-.97l-.62-8.46c-.03-.45-.19-2.99-.29-3.29Z"/>
    <path class="st0" d="M35.15,79.01c.05,1.13.13,2.28.23,3.41.29,3.22.44,6.49.75,9.71,1.96,0,18.99.14,19.28,0,.06-.22.06-.23.07-.46.08-3.36.5-7.05.67-10.45-6.02-.73-12.11-1.22-18.14-1.93-.94-.11-1.93-.22-2.87-.27Z"/>
    <path class="st0" d="M55.68,33.02l.03-.05c.08-4.37.15-8.73.19-13.1l-12.56-4.91c-2.3-.9-4.9-1.96-7.2-2.78-.03,3.8.24,7.64.25,11.43l18.38,9.08c.23.12.69.36.92.33Z"/>
    <path class="st0" d="M34.42,113.38c-2.45-.2-5.6-1.1-8.01-1.53l-.02,12.34c0,2.71-.05,5.54,0,8.23,1.03.06,11,.63,11.27.5.02-.13.04-.2.04-.33v-13.02c.01-2.07.1-4.7,0-6.71-.7.09-2.78.56-3.29.52Z"/>
    <path class="st0" d="M132.63,39.16l-7.54-4.22c-1.12-.62-2.78-1.61-3.91-2.15.02,4.01.18,8,.23,12,7.05-.23,14.26-.59,21.31-.92,2.63,1.56,5.24,3.14,7.84,4.74,1.02.62,2.73,1.75,3.72,2.27l.11-.03.03-.21v-5.48c-3.71-2.43-7.68-5.06-11.44-7.38l-6.72.87c-1.05.14-2.63.3-3.64.5Z"/>
    <path class="st0" d="M154.25,114.63c-2.06.67-4.92,1.8-7,2.29-.37.09-3.47-.43-4.08-.52v21.63s.05.18.05.18c.2.01,10.04-5.64,11.13-6.26,0-2.05.12-16.83-.07-17.28l-.04-.03Z"/>
    <path class="st0" d="M120.3,25.12c-2.31.3-4.72.55-7,.88-1.99-1.04-3.98-2.1-5.96-3.16-.88-.47-2.38-1.33-3.26-1.72,0,3.31.09,6.64.08,9.92,5.27-.15,10.81-.37,16.07-.63l13.28,7.45c.98-.15,1.95-.28,2.94-.39.11-.74.06-2.4.04-3.21l-11.23-6.33c-1.61-.91-3.33-1.94-4.95-2.81Z"/>
    <path class="st0" d="M99.74,36.16c-.14,0-.2-.01-.34,0-4.47.49-9.75,1-14.15,1.67-.08,3.46-.12,6.92-.14,10.38.88.02,1.77.03,2.65.03,4.64.05,9.44.16,14.08.1-.15-1.16-1.93-11.96-2.11-12.19Z"/>
    <path class="st0" d="M102.48,104.34c-.05,1.06-.18,2.29-.18,3.33,1.44.13,3.12.21,4.52.38l9.29.75c.5-2.4.87-5.23,1.3-7.67.21-1.22.73-3.96.81-5.11l-15.23.17c-.11,2.71-.36,5.44-.5,8.15Z"/>
    <path class="st0" d="M101.51,50.5h-.13c-3.62.52-7.24,1.07-10.86,1.65-1.65.26-3.87.51-5.45.84-.05,1.19-.56,10.76-.45,11.02h.2s14.68-2.14,14.68-2.14c.2-1.24,2.13-10.94,2.01-11.37Z"/>
    <path class="st0" d="M117.84,90.5c-.57-3.12-1.03-6.28-1.61-9.4l-8.55-.81c-1.36-.13-3.42-.38-4.75-.4,0,3.9.09,7.73.12,11.63l15.3,2.47c-.07-1.11-.31-2.38-.51-3.49Z"/>
    <path class="st0" d="M98.72,95.7l-9.25-1.65c-1.69-.3-3.69-.7-5.36-.9l.06,11.06c3.62.64,7.23,1.32,10.84,2.04,1.56.31,4.1.89,5.61,1.06-.14-1.33-.46-3.03-.68-4.38l-1.21-7.23Z"/>
    <path class="st0" d="M116.78,49.81c-.43,0-1,0-1.42.04l-11.76.41c0,3.85.02,7.7.07,11.55,1.41.09,2.82.17,4.23.23,2.07.13,4.15.25,6.22.36,1.5.08,3.23.21,4.73.21-.44-3.94-1.44-8.82-2.06-12.8Z"/>
    <path class="st0" d="M116.91,45.03c.19-1.23,1.97-11.9,1.89-12.24-.23-.11-.11-.07-.4-.02l-9.06,1.78c-1.51.3-3.71.67-5.16,1.05-.06,1.27-.74,12.3-.59,12.58l.26-.04,13.06-3.1Z"/>
    <path class="st0" d="M99.75,79.94c-4.97.31-10.24.75-15.18.94-.13,3.4-.36,6.95-.54,10.36h1.68s13.21.06,13.21.06c.46-2.56.94-5.12,1.44-7.67.22-1.15.54-2.62.7-3.76-.28.01-1.07.03-1.31.07Z"/>
    <path class="st0" d="M99.32,66.46c-4.75-.17-9.96-.45-14.68-.48l-.02,10.25c5.5.47,11.11,1.23,16.57,1.66-.59-3.81-1.32-7.63-1.88-11.43Z"/>
    <path class="st0" d="M118.03,64.65c-4.82.54-9.63,1.13-14.44,1.75-.09,1.2-.86,11.12-.73,11.51.22.1.31.06.55.03l12.94-1.22,1.54-8.07c.11-.57.7-3.55.71-4-.27-.05-.31-.03-.58,0Z"/>
    <path class="st0" d="M20.18,42.68l1.85.03c3.88.11,7.76.2,11.64.27-.12-4.11-.75-8.37-1.01-12.48-.03-.5-.11-2.07-.23-2.44-.15-.1-.08-.08-.19-.09-3.57,1.15-7.29,2.15-10.89,3.24-.2,2.62-.58,5.3-.83,7.92-.11,1.13-.31,2.45-.34,3.56Z"/>
    <path class="st0" d="M19.41,107c4.09.99,8.4,2.2,12.46,3.31l1.25.31c-.31-3.08-.63-6.15-.97-9.23-.13-1.24-.43-3.32-.47-4.51l-6.58-1.62c-1.26-.31-2.96-.76-4.22-.99-.38,2.93-.72,5.87-1.03,8.82-.13,1.21-.26,2.73-.44,3.91Z"/>
    <path class="st0" d="M99.87,31.71c.61-3.37,1.32-6.96,1.82-10.33l-.11-.1c-5.13,1.08-10.4,2.39-15.53,3.54l-.51,7.06c-.08,1.11-.26,2.68-.25,3.74l.09.07h.04c4.56-1.24,10.02-2.57,14.46-3.98Z"/>
    <path class="st0" d="M32.48,76.64l.85.1c-.06-1.39-.27-2.81-.39-4.19-.29-3.2-.77-6.5-1.02-9.7l-10.8-.05c-.16.64-.18,1.46-.24,2.13-.33,3.25-.54,6.53-.86,9.77,4.14.54,8.37,1.4,12.47,1.94Z"/>
    <path class="st0" d="M32.87,45.63c-4.15.73-8.35,1.63-12.5,2.31.12,3.03.25,6.05.4,9.07.04.74.09,3.22.2,3.77,1.14-.21,2.32-.49,3.45-.77,2.51-.62,5.08-1.14,7.57-1.81.09-1.42,1.4-12.14,1.26-12.57-.2-.05-.19-.04-.39,0Z"/>
    <path class="st0" d="M20.1,80.18l.41,7.84c.07,1.19.12,2.99.27,4.15l.16.09c3.63,0,7.26-.05,10.89-.13.39-4.3,1.04-8.86,1.35-13.12-.17.01-.65.03-.79.05-3.97.36-8.35.86-12.28,1.12Z"/>
    <path class="st0" d="M30.61,24.4c.47-.23,1.03-.51,1.48-.77.15-1.2,1.55-11.6,1.41-11.9h-.13c-4.1,1.23-8.18,2.59-12.28,3.82,0,4.43-.04,8.92.02,13.35l.11.09c3.16-1.4,6.27-3.08,9.38-4.59Z"/>
    <path class="st0" d="M83.18,16.2c.64-.21,1.29-.4,1.94-.6-.01-3.88-.02-7.86.04-11.74-1.8-.83-3.61-1.67-5.4-2.52-.84-.4-2.1-1.03-2.94-1.34v18.12s6.37-1.93,6.37-1.93Z"/>
    <path class="st0" d="M147.96,48.99c-.68-.41-2.39-1.5-3-1.76-.07,3.89.03,7.81-.03,11.7,1.53-.11,3.32-.21,4.84-.39,1.5,1.35,2.94,2.75,4.45,4.1h.17c.09-.89.05-2.5.05-3.44v-6.25c-2.15-1.33-4.31-2.65-6.47-3.96Z"/>
    <path class="st0" d="M75.74.19l-.13-.05c-3.91,1.26-7.83,2.48-11.76,3.66-.02,1.8-.02,3.6,0,5.4,1.1-.29,2.19-.58,3.29-.9.17-.04.43-.11.6-.04,2.71,1.08,5.34,2.44,8.04,3.53.02-1.17.12-11.14-.03-11.6Z"/>
    <path class="st0" d="M149.3,72.28c-.28,1.97-.54,4.2-.88,6.15l4.86-.85c.83-.15,2.09-.35,2.88-.56-.53-4.03-1.03-8.3-1.66-12.3-1.29-.51-2.58-1-3.89-1.47l-1.31,9.02Z"/>
    <path class="st0" d="M150.83,95.7c1.21-.09,2.63-.24,3.81-.28.04-.42.09-.85.14-1.27l.93-7.45c.15-1.22.31-2.91.52-4.1-2.46-.54-5.26-1.2-7.73-1.65l2.32,14.76Z"/>
    <path class="st0" d="M154.23,97.57c-1.14.3-2.3.58-3.45.83-.66,5.05-1.6,10.21-2.21,15.25l1.4-.49c1.79-.61,4.31-1.38,6-2.07-.25-2.13-1.29-10.68-1.62-13.42l-.13-.1Z"/>
    <path class="st0" d="M83.29,38.2l-.17-.02c-2.16.49-4.39,1.12-6.55,1.67l.09,7.55c0,.48-.03,3.06.15,3.24,1.43-.6,2.84-1.23,4.25-1.87.26-.97,2.31-10.25,2.23-10.58Z"/>
    <path class="st0" d="M80.88,52.82c-1.24-.1-2.88-.27-4.09-.27-.12,3.33-.21,6.67-.28,10l6.33,1.48c.21-.4-1.69-10.04-1.96-11.21Z"/>
    <path class="st0" d="M81.57,25.09c-1.31.24-2.62.48-3.93.74-.19,1.98-.4,3.95-.63,5.92-.11,1.01-.22,2.51-.39,3.48.8.1,1.61.19,2.41.28,1.33.15,3.19.41,4.49.47-.16-.96-1.81-10.77-1.96-10.91Z"/>
    <path class="st0" d="M76.2,94.02c0,1.14.09,10.15.29,10.41,1.27-.04,2.55-.1,3.82-.17l1.38-7.78c.09-.52.55-2.89.55-3.31l-.14-.03c-1.94.22-4.04.69-5.9.89Z"/>
    <path class="st0" d="M82.3,66.18l-5.83,1.19c0,1.12-.04,9.99.12,10.25.1-.01.2-.01.29-.04,1.25-.34,2.55-.68,3.79-1.05.44-2.41,1.01-4.8,1.48-7.2.16-.83.55-2.34.6-3.11-.24-.13-.12-.08-.46-.04Z"/>
    <path class="st0" d="M82.15,89.62c-.47-3.06-1.15-6.1-1.63-9.15-1.33-.28-2.64-.61-3.97-.91-.08,3.13-.34,6.6-.34,9.69,1.89.57,4.11,1.29,5.99,1.75l.14-.05c0-.48-.12-.85-.19-1.32Z"/>
  </g>
</svg>